<svg width="240.000000" height="160.000000" viewBox="0 0 240 160" fill="none" xmlns="http://www.w3.org/2000/svg" xmlns:xlink="http://www.w3.org/1999/xlink">
	<desc>
			Created with Pixso.
	</desc>
	<defs/>
	<rect id="back" rx="6.000000" width="240.000000" height="160.000000" fill="#FFFFFF" fill-opacity="1.000000"/>
	<rect id="back" x="0.500000" y="0.500000" rx="6.000000" width="239.000000" height="159.000000" stroke="#EAEAEA" stroke-opacity="1.000000" stroke-width="1.000000"/>
	<mask id="mask0_749" mask-type="alpha" maskUnits="userSpaceOnUse" x="0.000000" y="0.000000" width="240.000000" height="160.000000">
		<rect id="back" rx="6.000000" width="240.000000" height="160.000000" fill="#FFFFFF" fill-opacity="1.000000"/>
		<rect id="back" x="0.500000" y="0.500000" rx="6.000000" width="239.000000" height="159.000000" stroke="#EAEAEA" stroke-opacity="1.000000" stroke-width="1.000000"/>
	</mask>
	<g mask="url(#mask0_749)">
		<rect id="back" x="184.000000" y="104.000000" rx="20.000000" width="40.000000" height="40.000000" fill="#D8D8D8" fill-opacity="0"/>
		<rect id="back" x="185.000000" y="105.000000" rx="19.000000" width="38.000000" height="38.000000" stroke="#FF3E79" stroke-opacity="1.000000" stroke-width="2.000000"/>
		<path id="dropdown" d="M205.5 124L201.7 120.2C201.31 119.81 201.31 119.18 201.7 118.79L201.79 118.7C202.18 118.31 202.81 118.31 203.2 118.7L207.79 123.29C208.18 123.68 208.18 124.31 207.79 124.7L203.2 129.29C202.81 129.68 202.18 129.68 201.79 129.29L201.7 129.2C201.31 128.81 201.31 128.18 201.7 127.79L205.5 124Z" fill="#FF3E79" fill-opacity="1.000000" fill-rule="evenodd"/>
	</g>
	<g mask="url(#mask0_749)">
		<path id="Ремонт ноутбуков" d="M111.24 23.9Q110.68 24.55 110.68 25.68L110.68 30.88C110.68 31.68 110.89 32.29 111.32 32.72Q111.33 32.72 111.34 32.73Q111.99 33.36 113.24 33.36L115 33.36Q116.25 33.36 116.89 32.73Q116.9 32.72 116.91 32.72C117.34 32.29 117.56 31.68 117.56 30.88L117.56 28.8Q117.56 27.71 117.03 27.08Q116.97 27.02 116.91 26.96Q116.9 26.95 116.89 26.94Q116.25 26.32 115 26.32L112.04 26.32L112.04 25.68Q112.04 25.25 112.23 24.96Q112.29 24.87 112.36 24.8C112.59 24.56 112.88 24.43 113.24 24.4L115.16 24.24C115.89 24.18 116.41 24 116.75 23.68C117.08 23.34 117.24 22.84 117.24 22.16L117.24 22.08C117.24 21.92 117.16 21.84 117 21.84L116.12 21.84C115.96 21.84 115.88 21.92 115.88 22.08L115.88 22.16C115.88 22.36 115.82 22.52 115.71 22.65C115.59 22.78 115.41 22.85 115.16 22.88L113.24 23.04Q111.87 23.15 111.24 23.9ZM19.12 32.96L19.12 29.68L23.68 29.68Q25.16 29.68 25.88 28.94Q26.56 28.24 26.56 26.88L26.56 24.8Q26.56 23.43 25.88 22.74Q25.16 22 23.68 22L17.84 22Q17.71 22 17.66 22.06Q17.6 22.12 17.6 22.24L17.6 32.96Q17.6 33.08 17.66 33.14Q17.71 33.2 17.84 33.2L18.87 33.2Q19 33.2 19.06 33.14Q19.12 33.08 19.12 32.96ZM24.7 27.9Q24.36 28.24 23.68 28.24L19.12 28.24L19.12 23.44L23.68 23.44Q24.36 23.44 24.7 23.78Q25.04 24.12 25.04 24.8L25.04 26.88Q25.04 27.56 24.7 27.9ZM29.96 30.88L29.96 29.68L35.4 29.68Q35.52 29.68 35.58 29.62Q35.64 29.56 35.64 29.44L35.64 27.36C35.64 26.56 35.42 25.94 34.99 25.52Q34.98 25.51 34.97 25.5Q34.33 24.88 33.08 24.88L31.16 24.88Q29.92 24.88 29.26 25.5Q29.25 25.51 29.24 25.52Q29.2 25.56 29.16 25.61Q28.6 26.24 28.6 27.36L28.6 30.88C28.6 31.68 28.82 32.29 29.24 32.72Q29.25 32.72 29.26 32.73Q29.92 33.36 31.16 33.36L33.08 33.36Q34.33 33.36 34.97 32.73Q34.98 32.72 34.99 32.72C35.42 32.29 35.64 31.68 35.64 30.88L35.64 30.8C35.64 30.64 35.56 30.56 35.4 30.56L34.52 30.56Q34.4 30.56 34.34 30.62Q34.28 30.68 34.28 30.8L34.28 30.88Q34.28 31.27 34.11 31.55Q34.04 31.66 33.95 31.76C33.73 31.97 33.45 32.08 33.08 32.08L31.16 32.08C30.8 32.08 30.51 31.97 30.28 31.76Q30.21 31.68 30.16 31.59Q29.96 31.3 29.96 30.88ZM55.71 32.72C56.15 32.29 56.37 31.68 56.37 30.88L56.37 27.36C56.37 26.56 56.15 25.94 55.71 25.52Q55.71 25.51 55.7 25.5Q55.06 24.88 53.81 24.88L51.81 24.88C50.97 24.88 50.33 25.09 49.89 25.52Q49.84 25.56 49.8 25.61Q49.25 26.24 49.25 27.36L49.25 30.88C49.25 31.68 49.46 32.29 49.89 32.72C50.33 33.14 50.97 33.36 51.81 33.36L53.81 33.36Q55.06 33.36 55.7 32.73Q55.71 32.72 55.71 32.72ZM93.12 32.72C93.56 32.29 93.78 31.68 93.78 30.88L93.78 27.36Q93.78 26.27 93.24 25.64Q93.18 25.58 93.12 25.52Q93.11 25.51 93.1 25.5Q92.46 24.88 91.22 24.88L89.22 24.88Q87.97 24.88 87.31 25.5Q87.3 25.51 87.3 25.52Q87.25 25.56 87.21 25.61Q86.66 26.24 86.66 27.36L86.66 30.88C86.66 31.68 86.87 32.29 87.3 32.72Q87.3 32.72 87.31 32.73Q87.97 33.36 89.22 33.36L91.22 33.36Q92.46 33.36 93.1 32.73Q93.11 32.72 93.12 32.72ZM141.69 32.72C142.12 32.29 142.34 31.68 142.34 30.88L142.34 27.36Q142.34 26.27 141.81 25.64Q141.75 25.58 141.69 25.52Q141.68 25.51 141.67 25.5Q141.03 24.88 139.78 24.88L137.78 24.88Q136.53 24.88 135.88 25.5Q135.87 25.51 135.86 25.52Q135.82 25.56 135.77 25.61Q135.22 26.24 135.22 27.36L135.22 30.88C135.22 31.68 135.44 32.29 135.86 32.72Q135.87 32.72 135.88 32.73Q136.53 33.36 137.78 33.36L139.78 33.36Q141.03 33.36 141.67 32.73Q141.68 32.72 141.69 32.72ZM45.36 25.28L42.48 31.44L42.4 31.44L39.52 25.28C39.48 25.19 39.43 25.13 39.36 25.1C39.31 25.06 39.2 25.04 39.04 25.04L38.08 25.04Q37.96 25.04 37.9 25.1Q37.84 25.16 37.84 25.28L37.84 32.96Q37.84 33.08 37.9 33.14Q37.96 33.2 38.08 33.2L38.96 33.2Q39.08 33.2 39.14 33.14Q39.2 33.08 39.2 32.96L39.2 27.68L39.28 27.68L41.76 32.96C41.81 33.04 41.85 33.1 41.91 33.15C41.97 33.18 42.08 33.2 42.24 33.2L42.64 33.2Q42.88 33.2 42.96 33.15C43.03 33.1 43.08 33.04 43.12 32.96L45.6 27.68L45.68 27.68L45.68 32.96Q45.68 33.08 45.74 33.14Q45.8 33.2 45.92 33.2L46.8 33.2C46.96 33.2 47.04 33.12 47.04 32.96L47.04 25.28C47.04 25.12 46.96 25.04 46.8 25.04L45.84 25.04C45.68 25.04 45.57 25.06 45.51 25.1C45.45 25.13 45.41 25.19 45.36 25.28ZM59.93 32.96L59.93 29.68L64.01 29.68L64.01 32.96C64.01 33.12 64.09 33.2 64.25 33.2L65.13 33.2C65.29 33.2 65.37 33.12 65.37 32.96L65.37 25.28C65.37 25.12 65.29 25.04 65.13 25.04L64.25 25.04C64.09 25.04 64.01 25.12 64.01 25.28L64.01 28.48L59.93 28.48L59.93 25.28C59.93 25.12 59.85 25.04 59.69 25.04L58.81 25.04C58.65 25.04 58.57 25.12 58.57 25.28L58.57 32.96C58.57 33.12 58.65 33.2 58.81 33.2L59.69 33.2C59.85 33.2 59.93 33.12 59.93 32.96ZM69.33 32.96C69.33 33.12 69.41 33.2 69.57 33.2L70.45 33.2C70.61 33.2 70.69 33.12 70.69 32.96L70.69 26.32L73.17 26.32C73.33 26.32 73.41 26.24 73.41 26.08L73.41 25.28C73.41 25.12 73.33 25.04 73.17 25.04L66.85 25.04C66.69 25.04 66.61 25.12 66.61 25.28L66.61 26.08C66.61 26.24 66.69 26.32 66.85 26.32L69.33 26.32L69.33 32.96ZM79.02 32.96L79.02 29.68L83.1 29.68L83.1 32.96C83.1 33.12 83.18 33.2 83.34 33.2L84.22 33.2C84.38 33.2 84.46 33.12 84.46 32.96L84.46 25.28C84.46 25.12 84.38 25.04 84.22 25.04L83.34 25.04C83.18 25.04 83.1 25.12 83.1 25.28L83.1 28.48L79.02 28.48L79.02 25.28C79.02 25.12 78.94 25.04 78.78 25.04L77.9 25.04C77.74 25.04 77.66 25.12 77.66 25.28L77.66 32.96C77.66 33.12 77.74 33.2 77.9 33.2L78.78 33.2C78.94 33.2 79.02 33.12 79.02 32.96ZM101.18 25.1C101.12 25.13 101.08 25.19 101.05 25.28L98.81 31.28L98.73 31.28L96.49 25.28C96.46 25.19 96.41 25.13 96.34 25.1C96.29 25.06 96.2 25.04 96.09 25.04L95.13 25.04C94.96 25.04 94.9 25.12 94.97 25.28L98.09 33.2C97.84 33.84 97.59 34.29 97.32 34.56Q97.18 34.7 97.02 34.79Q96.72 34.96 96.33 34.96L96.01 34.96C95.85 34.96 95.77 35.04 95.77 35.2L95.77 36C95.77 36.16 95.85 36.24 96.01 36.24L96.33 36.24Q96.87 36.24 97.3 36.08C97.59 35.97 97.86 35.79 98.1 35.55C98.35 35.31 98.58 35 98.79 34.62Q99.11 34.04 99.45 33.2L102.57 25.28C102.63 25.12 102.58 25.04 102.41 25.04L101.45 25.04C101.33 25.04 101.24 25.06 101.18 25.1ZM105.58 33.14Q105.64 33.2 105.76 33.2L106.64 33.2C106.8 33.2 106.88 33.12 106.88 32.96L106.88 26.32L109.36 26.32C109.52 26.32 109.6 26.24 109.6 26.08L109.6 25.28C109.6 25.12 109.52 25.04 109.36 25.04L103.04 25.04C102.88 25.04 102.8 25.12 102.8 25.28L102.8 26.08C102.8 26.24 102.88 26.32 103.04 26.32L105.52 26.32L105.52 32.96Q105.52 33.08 105.58 33.14ZM124.64 25.1C124.58 25.13 124.54 25.19 124.51 25.28L122.27 31.28L122.19 31.28L119.95 25.28C119.92 25.19 119.87 25.13 119.81 25.1C119.75 25.06 119.67 25.04 119.55 25.04L118.59 25.04C118.42 25.04 118.37 25.12 118.43 25.28L121.55 33.2C121.3 33.84 121.05 34.29 120.78 34.56C120.53 34.82 120.2 34.96 119.79 34.96L119.47 34.96C119.31 34.96 119.23 35.04 119.23 35.2L119.23 36C119.23 36.16 119.31 36.24 119.47 36.24L119.79 36.24Q120.33 36.24 120.77 36.08C121.05 35.97 121.32 35.79 121.57 35.55C121.81 35.31 122.04 35 122.25 34.62Q122.57 34.04 122.91 33.2L126.03 25.28C126.09 25.12 126.04 25.04 125.87 25.04L124.91 25.04C124.79 25.04 124.7 25.06 124.64 25.1ZM128.74 29.52L130.74 29.52L132.58 32.96C132.62 33.04 132.67 33.1 132.72 33.15C132.78 33.18 132.86 33.2 132.98 33.2L133.94 33.2C134.12 33.2 134.17 33.12 134.1 32.96L131.86 28.88L133.86 25.28C133.93 25.12 133.88 25.04 133.7 25.04L132.74 25.04C132.62 25.04 132.53 25.06 132.48 25.1C132.43 25.13 132.38 25.19 132.34 25.28L130.74 28.24L128.74 28.24L128.74 25.28C128.74 25.12 128.66 25.04 128.5 25.04L127.62 25.04C127.46 25.04 127.38 25.12 127.38 25.28L127.38 32.96C127.38 33.12 127.46 33.2 127.62 33.2L128.5 33.2C128.66 33.2 128.74 33.12 128.74 32.96L128.74 29.52ZM144.6 33.14Q144.66 33.2 144.78 33.2L148.94 33.2Q150.18 33.2 150.78 32.58Q151.34 32 151.34 30.88L151.34 30.72Q151.34 30.16 151.1 29.8C150.94 29.57 150.77 29.39 150.57 29.26C150.35 29.11 150.1 29.01 149.82 28.96L149.82 28.88C150.01 28.82 150.18 28.73 150.33 28.6C150.46 28.49 150.58 28.33 150.69 28.14Q150.86 27.84 150.86 27.36Q150.86 26.23 150.3 25.66Q149.7 25.04 148.46 25.04L144.78 25.04Q144.66 25.04 144.6 25.1Q144.54 25.16 144.54 25.28L144.54 32.96Q144.54 33.08 144.6 33.14ZM34.28 27.36L34.28 28.4L29.96 28.4L29.96 27.36Q29.96 26.92 30.17 26.63Q30.22 26.56 30.28 26.49C30.51 26.27 30.8 26.16 31.16 26.16L33.08 26.16C33.45 26.16 33.73 26.27 33.95 26.49C34.17 26.7 34.28 26.99 34.28 27.36ZM54.67 26.49C54.9 26.7 55.01 26.99 55.01 27.36L55.01 30.88C55.01 31.24 54.9 31.53 54.67 31.76C54.46 31.97 54.17 32.08 53.81 32.08L51.81 32.08C51.45 32.08 51.15 31.97 50.93 31.76Q50.86 31.68 50.8 31.59Q50.61 31.3 50.61 30.88L50.61 27.36Q50.61 26.92 50.81 26.63Q50.86 26.56 50.93 26.49C51.15 26.27 51.45 26.16 51.81 26.16L53.81 26.16C54.17 26.16 54.46 26.27 54.67 26.49ZM92.23 26.67Q92.42 26.95 92.42 27.36L92.42 30.88Q92.42 31.27 92.24 31.55Q92.17 31.66 92.08 31.76C91.87 31.97 91.58 32.08 91.22 32.08L89.22 32.08C88.85 32.08 88.56 31.97 88.34 31.76Q88.26 31.68 88.21 31.59Q88.02 31.3 88.02 30.88L88.02 27.36Q88.02 26.92 88.22 26.63Q88.27 26.56 88.34 26.49C88.56 26.27 88.85 26.16 89.22 26.16L91.22 26.16C91.58 26.16 91.87 26.27 92.08 26.49Q92.16 26.57 92.23 26.67ZM140.79 26.67Q140.98 26.95 140.98 27.36L140.98 30.88Q140.98 31.27 140.81 31.55Q140.74 31.66 140.64 31.76C140.43 31.97 140.14 32.08 139.78 32.08L137.78 32.08C137.42 32.08 137.13 31.97 136.9 31.76Q136.83 31.68 136.77 31.59Q136.58 31.3 136.58 30.88L136.58 27.36Q136.58 26.92 136.78 26.63Q136.84 26.56 136.9 26.49C137.13 26.27 137.42 26.16 137.78 26.16L139.78 26.16C140.14 26.16 140.43 26.27 140.64 26.49Q140.73 26.57 140.79 26.67ZM149.21 28.12C149.03 28.3 148.78 28.4 148.46 28.4L145.9 28.4L145.9 26.32L148.46 26.32C148.78 26.32 149.03 26.41 149.21 26.6C149.41 26.78 149.5 27.04 149.5 27.36C149.5 27.68 149.41 27.93 149.21 28.12ZM112.23 31.59Q112.04 31.3 112.04 30.88L112.04 27.6L115 27.6C115.36 27.6 115.65 27.71 115.87 27.93Q115.95 28.01 116.01 28.11Q116.2 28.39 116.2 28.8L116.2 30.88Q116.2 31.27 116.02 31.55Q115.96 31.66 115.87 31.76C115.65 31.97 115.36 32.08 115 32.08L113.24 32.08C112.88 32.08 112.59 31.97 112.36 31.76Q112.29 31.68 112.23 31.59ZM149.61 31.72Q149.35 31.92 148.94 31.92L145.9 31.92L145.9 29.68L148.94 29.68Q149.32 29.68 149.57 29.86Q149.64 29.9 149.69 29.96C149.89 30.14 149.98 30.4 149.98 30.72L149.98 30.88C149.98 31.2 149.89 31.45 149.69 31.64Q149.65 31.68 149.61 31.72Z" fill="#1B1C21" fill-opacity="1.000000" fill-rule="evenodd"/>
	</g>
</svg>
