<svg width="240.000000" height="160.000000" viewBox="0 0 240 160" fill="none" xmlns="http://www.w3.org/2000/svg" xmlns:xlink="http://www.w3.org/1999/xlink">
	<desc>
			Created with Pixso.
	</desc>
	<defs/>
	<rect id="back" rx="6.000000" width="240.000000" height="160.000000" fill="#FFFFFF" fill-opacity="1.000000"/>
	<rect id="back" x="0.500000" y="0.500000" rx="6.000000" width="239.000000" height="159.000000" stroke="#EAEAEA" stroke-opacity="1.000000" stroke-width="1.000000"/>
	<mask id="mask0_737" mask-type="alpha" maskUnits="userSpaceOnUse" x="0.000000" y="0.000000" width="240.000000" height="160.000000">
		<rect id="back" rx="6.000000" width="240.000000" height="160.000000" fill="#FFFFFF" fill-opacity="1.000000"/>
		<rect id="back" x="0.500000" y="0.500000" rx="6.000000" width="239.000000" height="159.000000" stroke="#EAEAEA" stroke-opacity="1.000000" stroke-width="1.000000"/>
	</mask>
	<g mask="url(#mask0_737)">
		<rect id="back" x="184.000000" y="104.000000" rx="20.000000" width="40.000000" height="40.000000" fill="#D8D8D8" fill-opacity="0"/>
		<rect id="back" x="185.000000" y="105.000000" rx="19.000000" width="38.000000" height="38.000000" stroke="#FF3E79" stroke-opacity="1.000000" stroke-width="2.000000"/>
		<path id="dropdown" d="M205.5 124L201.7 120.2C201.31 119.81 201.31 119.18 201.7 118.79L201.79 118.7C202.18 118.31 202.81 118.31 203.2 118.7L207.79 123.29C208.18 123.68 208.18 124.31 207.79 124.7L203.2 129.29C202.81 129.68 202.18 129.68 201.79 129.29L201.7 129.2C201.31 128.81 201.31 128.18 201.7 127.79L205.5 124Z" fill="#FF3E79" fill-opacity="1.000000" fill-rule="evenodd"/>
	</g>
	<g mask="url(#mask0_737)">
		<path id="Ремонт планшетов" d="M19.12 32.96L19.12 29.68L23.68 29.68Q25.16 29.68 25.88 28.94Q26.56 28.24 26.56 26.88L26.56 24.8Q26.56 23.43 25.88 22.74Q25.16 22 23.68 22L17.84 22Q17.71 22 17.66 22.06Q17.6 22.12 17.6 22.24L17.6 32.96Q17.6 33.08 17.66 33.14Q17.71 33.2 17.84 33.2L18.87 33.2Q19 33.2 19.06 33.14Q19.12 33.08 19.12 32.96ZM24.7 27.9Q24.36 28.24 23.68 28.24L19.12 28.24L19.12 23.44L23.68 23.44Q24.36 23.44 24.7 23.78Q25.04 24.12 25.04 24.8L25.04 26.88Q25.04 27.56 24.7 27.9ZM29.96 30.88L29.96 29.68L35.4 29.68Q35.52 29.68 35.58 29.62Q35.64 29.56 35.64 29.44L35.64 27.36C35.64 26.56 35.42 25.94 34.99 25.52Q34.98 25.51 34.97 25.5Q34.33 24.88 33.08 24.88L31.16 24.88Q29.92 24.88 29.26 25.5Q29.25 25.51 29.24 25.52Q29.2 25.56 29.16 25.61Q28.6 26.24 28.6 27.36L28.6 30.88C28.6 31.68 28.82 32.29 29.24 32.72Q29.25 32.72 29.26 32.73Q29.92 33.36 31.16 33.36L33.08 33.36Q34.33 33.36 34.97 32.73Q34.98 32.72 34.99 32.72C35.42 32.29 35.64 31.68 35.64 30.88L35.64 30.8C35.64 30.64 35.56 30.56 35.4 30.56L34.52 30.56Q34.4 30.56 34.34 30.62Q34.28 30.68 34.28 30.8L34.28 30.88Q34.28 31.27 34.11 31.55Q34.04 31.66 33.95 31.76C33.73 31.97 33.45 32.08 33.08 32.08L31.16 32.08C30.8 32.08 30.51 31.97 30.28 31.76Q30.21 31.68 30.16 31.59Q29.96 31.3 29.96 30.88ZM55.71 32.72C56.15 32.29 56.37 31.68 56.37 30.88L56.37 27.36C56.37 26.56 56.15 25.94 55.71 25.52Q55.71 25.51 55.7 25.5Q55.06 24.88 53.81 24.88L51.81 24.88C50.97 24.88 50.33 25.09 49.89 25.52Q49.84 25.56 49.8 25.61Q49.25 26.24 49.25 27.36L49.25 30.88C49.25 31.68 49.46 32.29 49.89 32.72C50.33 33.14 50.97 33.36 51.81 33.36L53.81 33.36Q55.06 33.36 55.7 32.73Q55.71 32.72 55.71 32.72ZM97.9 28.4C96.3 28.4 95.5 29.17 95.5 30.72L95.5 31.04C95.5 32.58 96.3 33.36 97.9 33.36L99.02 33.36C99.36 33.36 99.64 33.3 99.87 33.2C100.09 33.1 100.27 32.99 100.41 32.88C100.57 32.74 100.69 32.58 100.78 32.4L100.86 32.4L100.86 32.96C100.86 33.12 100.94 33.2 101.1 33.2L101.98 33.2C102.14 33.2 102.22 33.12 102.22 32.96L102.22 27.36Q102.22 26.27 101.68 25.64Q101.63 25.58 101.56 25.52Q101.56 25.51 101.55 25.5Q100.91 24.88 99.66 24.88L98.54 24.88Q97.29 24.88 96.64 25.5Q96.63 25.51 96.62 25.52Q96.57 25.56 96.53 25.61Q95.98 26.24 95.98 27.36C95.98 27.52 96.06 27.6 96.22 27.6L97.1 27.6Q97.22 27.6 97.28 27.54Q97.34 27.48 97.34 27.36Q97.34 26.92 97.54 26.63Q97.59 26.56 97.66 26.49C97.88 26.27 98.18 26.16 98.54 26.16L99.66 26.16C100.02 26.16 100.31 26.27 100.52 26.49Q100.61 26.57 100.67 26.67Q100.86 26.95 100.86 27.36L100.86 28.4L97.9 28.4ZM127.61 30.88L127.61 29.68L133.05 29.68Q133.17 29.68 133.23 29.62Q133.29 29.56 133.29 29.44L133.29 27.36C133.29 26.56 133.07 25.94 132.63 25.52Q132.62 25.51 132.61 25.5Q131.97 24.88 130.73 24.88L128.81 24.88Q127.56 24.88 126.9 25.5Q126.9 25.51 126.89 25.52Q126.84 25.56 126.8 25.61Q126.25 26.24 126.25 27.36L126.25 30.88C126.25 31.68 126.46 32.29 126.89 32.72Q126.9 32.72 126.9 32.73Q127.56 33.36 128.81 33.36L130.73 33.36Q131.97 33.36 132.61 32.73Q132.62 32.72 132.63 32.72C133.07 32.29 133.29 31.68 133.29 30.88L133.29 30.8C133.29 30.64 133.21 30.56 133.05 30.56L132.17 30.56C132.01 30.56 131.93 30.64 131.93 30.8L131.93 30.88C131.93 31.24 131.81 31.53 131.59 31.76C131.38 31.97 131.09 32.08 130.73 32.08L128.81 32.08C128.44 32.08 128.15 31.97 127.93 31.76Q127.86 31.68 127.8 31.59Q127.61 31.3 127.61 30.88ZM148.72 32.72C149.15 32.29 149.37 31.68 149.37 30.88L149.37 27.36C149.37 26.56 149.15 25.94 148.72 25.52C148.29 25.09 147.66 24.88 146.81 24.88L144.81 24.88C143.97 24.88 143.33 25.09 142.89 25.52Q142.85 25.56 142.81 25.61Q142.25 26.24 142.25 27.36L142.25 30.88C142.25 31.68 142.47 32.29 142.89 32.72C143.33 33.14 143.97 33.36 144.81 33.36L146.81 33.36C147.66 33.36 148.29 33.14 148.72 32.72ZM45.36 25.28L42.48 31.44L42.4 31.44L39.52 25.28C39.48 25.19 39.43 25.13 39.36 25.1C39.31 25.06 39.2 25.04 39.04 25.04L38.08 25.04Q37.96 25.04 37.9 25.1Q37.84 25.16 37.84 25.28L37.84 32.96Q37.84 33.08 37.9 33.14Q37.96 33.2 38.08 33.2L38.96 33.2Q39.08 33.2 39.14 33.14Q39.2 33.08 39.2 32.96L39.2 27.68L39.28 27.68L41.76 32.96C41.81 33.04 41.85 33.1 41.91 33.15C41.97 33.18 42.08 33.2 42.24 33.2L42.64 33.2Q42.88 33.2 42.96 33.15C43.03 33.1 43.08 33.04 43.12 32.96L45.6 27.68L45.68 27.68L45.68 32.96Q45.68 33.08 45.74 33.14Q45.8 33.2 45.92 33.2L46.8 33.2C46.96 33.2 47.04 33.12 47.04 32.96L47.04 25.28C47.04 25.12 46.96 25.04 46.8 25.04L45.84 25.04C45.68 25.04 45.57 25.06 45.51 25.1C45.45 25.13 45.41 25.19 45.36 25.28ZM59.93 32.96L59.93 29.68L64.01 29.68L64.01 32.96C64.01 33.12 64.09 33.2 64.25 33.2L65.13 33.2C65.29 33.2 65.37 33.12 65.37 32.96L65.37 25.28C65.37 25.12 65.29 25.04 65.13 25.04L64.25 25.04C64.09 25.04 64.01 25.12 64.01 25.28L64.01 28.48L59.93 28.48L59.93 25.28C59.93 25.12 59.85 25.04 59.69 25.04L58.81 25.04C58.65 25.04 58.57 25.12 58.57 25.28L58.57 32.96C58.57 33.12 58.65 33.2 58.81 33.2L59.69 33.2C59.85 33.2 59.93 33.12 59.93 32.96ZM69.33 32.96C69.33 33.12 69.41 33.2 69.57 33.2L70.45 33.2C70.61 33.2 70.69 33.12 70.69 32.96L70.69 26.32L73.17 26.32C73.33 26.32 73.41 26.24 73.41 26.08L73.41 25.28C73.41 25.12 73.33 25.04 73.17 25.04L66.85 25.04C66.69 25.04 66.61 25.12 66.61 25.28L66.61 26.08C66.61 26.24 66.69 26.32 66.85 26.32L69.33 26.32L69.33 32.96ZM83.1 32.96C83.1 33.12 83.18 33.2 83.34 33.2L84.22 33.2C84.38 33.2 84.46 33.12 84.46 32.96L84.46 25.28C84.46 25.12 84.38 25.04 84.22 25.04L77.9 25.04C77.74 25.04 77.66 25.12 77.66 25.28L77.66 32.96C77.66 33.12 77.74 33.2 77.9 33.2L78.78 33.2C78.94 33.2 79.02 33.12 79.02 32.96L79.02 26.32L83.1 26.32L83.1 32.96ZM87.68 32.8C88.06 32.42 88.34 31.84 88.5 31.04L89.46 26.32L92.1 26.32L92.1 32.96Q92.1 33.08 92.16 33.14Q92.22 33.2 92.34 33.2L93.22 33.2C93.38 33.2 93.46 33.12 93.46 32.96L93.46 25.28C93.46 25.12 93.38 25.04 93.22 25.04L88.74 25.04Q88.48 25.04 88.39 25.16Q88.35 25.21 88.34 25.28L87.14 31.04C87.06 31.37 86.92 31.62 86.72 31.8C86.53 31.98 86.29 32.08 86.02 32.08L85.78 32.08C85.62 32.08 85.54 32.16 85.54 32.32L85.54 33.12C85.54 33.28 85.62 33.36 85.78 33.36L86.02 33.36C86.74 33.36 87.3 33.17 87.68 32.8ZM105.93 32.96L105.93 29.68L110.01 29.68L110.01 32.96C110.01 33.12 110.09 33.2 110.25 33.2L111.13 33.2Q111.25 33.2 111.31 33.14Q111.37 33.08 111.37 32.96L111.37 25.28C111.37 25.12 111.29 25.04 111.13 25.04L110.25 25.04C110.09 25.04 110.01 25.12 110.01 25.28L110.01 28.48L105.93 28.48L105.93 25.28C105.93 25.12 105.85 25.04 105.69 25.04L104.81 25.04C104.65 25.04 104.57 25.12 104.57 25.28L104.57 32.96C104.57 33.12 104.65 33.2 104.81 33.2L105.69 33.2C105.85 33.2 105.93 33.12 105.93 32.96ZM115.09 25.28C115.09 25.12 115.01 25.04 114.85 25.04L113.97 25.04C113.81 25.04 113.73 25.12 113.73 25.28L113.73 32.96C113.73 33.12 113.81 33.2 113.97 33.2L123.81 33.2C123.97 33.2 124.05 33.12 124.05 32.96L124.05 25.28C124.05 25.12 123.97 25.04 123.81 25.04L122.93 25.04Q122.81 25.04 122.75 25.1Q122.69 25.16 122.69 25.28L122.69 31.92L119.57 31.92L119.57 25.28C119.57 25.12 119.49 25.04 119.33 25.04L118.45 25.04C118.29 25.04 118.21 25.12 118.21 25.28L118.21 31.92L115.09 31.92L115.09 25.28ZM137.15 33.14Q137.21 33.2 137.33 33.2L138.21 33.2C138.37 33.2 138.45 33.12 138.45 32.96L138.45 26.32L140.93 26.32C141.09 26.32 141.17 26.24 141.17 26.08L141.17 25.28C141.17 25.12 141.09 25.04 140.93 25.04L134.61 25.04C134.45 25.04 134.37 25.12 134.37 25.28L134.37 26.08C134.37 26.24 134.45 26.32 134.61 26.32L137.09 26.32L137.09 32.96Q137.09 33.08 137.15 33.14ZM151.63 33.14Q151.69 33.2 151.81 33.2L155.97 33.2Q157.21 33.2 157.81 32.58Q158.37 32 158.37 30.88L158.37 30.72Q158.37 30.16 158.13 29.8C157.97 29.57 157.8 29.39 157.6 29.26C157.38 29.11 157.13 29.01 156.85 28.96L156.85 28.88C157.04 28.82 157.22 28.73 157.36 28.6C157.49 28.49 157.61 28.33 157.72 28.14Q157.89 27.84 157.89 27.36Q157.89 26.23 157.33 25.66Q156.73 25.04 155.49 25.04L151.81 25.04Q151.69 25.04 151.63 25.1Q151.57 25.16 151.57 25.28L151.57 32.96Q151.57 33.08 151.63 33.14ZM34.28 27.36L34.28 28.4L29.96 28.4L29.96 27.36Q29.96 26.92 30.17 26.63Q30.22 26.56 30.28 26.49C30.51 26.27 30.8 26.16 31.16 26.16L33.08 26.16C33.45 26.16 33.73 26.27 33.95 26.49C34.17 26.7 34.28 26.99 34.28 27.36ZM54.67 26.49C54.9 26.7 55.01 26.99 55.01 27.36L55.01 30.88C55.01 31.24 54.9 31.53 54.67 31.76C54.46 31.97 54.17 32.08 53.81 32.08L51.81 32.08C51.45 32.08 51.15 31.97 50.93 31.76Q50.86 31.68 50.8 31.59Q50.61 31.3 50.61 30.88L50.61 27.36Q50.61 26.92 50.81 26.63Q50.86 26.56 50.93 26.49C51.15 26.27 51.45 26.16 51.81 26.16L53.81 26.16C54.17 26.16 54.46 26.27 54.67 26.49ZM131.93 27.36L131.93 28.4L127.61 28.4L127.61 27.36Q127.61 26.92 127.81 26.63Q127.86 26.56 127.93 26.49C128.15 26.27 128.44 26.16 128.81 26.16L130.73 26.16C131.09 26.16 131.38 26.27 131.59 26.49C131.81 26.7 131.93 26.99 131.93 27.36ZM147.83 26.67Q148.01 26.95 148.01 27.36L148.01 30.88Q148.01 31.27 147.84 31.55Q147.77 31.66 147.68 31.76C147.46 31.97 147.17 32.08 146.81 32.08L144.81 32.08C144.45 32.08 144.16 31.97 143.93 31.76Q143.86 31.68 143.81 31.59Q143.61 31.3 143.61 30.88L143.61 27.36Q143.61 26.92 143.82 26.63Q143.87 26.56 143.93 26.49C144.16 26.27 144.45 26.16 144.81 26.16L146.81 26.16C147.17 26.16 147.46 26.27 147.68 26.49Q147.76 26.57 147.83 26.67ZM156.24 28.12C156.06 28.3 155.81 28.4 155.49 28.4L152.93 28.4L152.93 26.32L155.49 26.32C155.81 26.32 156.06 26.41 156.24 26.6C156.44 26.78 156.53 27.04 156.53 27.36C156.53 27.68 156.44 27.93 156.24 28.12ZM97.13 31.8C96.95 31.61 96.86 31.36 96.86 31.04L96.86 30.72C96.86 30.4 96.95 30.14 97.13 29.96C97.32 29.77 97.58 29.68 97.9 29.68L100.86 29.68L100.86 30.4C100.86 30.88 100.7 31.28 100.38 31.6C100.06 31.92 99.66 32.08 99.18 32.08L97.9 32.08C97.58 32.08 97.32 31.98 97.13 31.8ZM156.64 31.72Q156.38 31.92 155.97 31.92L152.93 31.92L152.93 29.68L155.97 29.68Q156.35 29.68 156.6 29.86Q156.67 29.9 156.72 29.96C156.92 30.14 157.01 30.4 157.01 30.72L157.01 30.88C157.01 31.2 156.92 31.45 156.72 31.64Q156.68 31.68 156.64 31.72Z" fill="#1B1C21" fill-opacity="1.000000" fill-rule="evenodd"/>
	</g>
</svg>
