<svg width="240.000000" height="160.000000" viewBox="0 0 240 160" fill="none" xmlns="http://www.w3.org/2000/svg" xmlns:xlink="http://www.w3.org/1999/xlink">
	<desc>
			Created with Pixso.
	</desc>
	<defs/>
	<rect id="back" rx="6.000000" width="240.000000" height="160.000000" fill="#FFFFFF" fill-opacity="1.000000"/>
	<rect id="back" x="0.500000" y="0.500000" rx="6.000000" width="239.000000" height="159.000000" stroke="#EAEAEA" stroke-opacity="1.000000" stroke-width="1.000000"/>
	<mask id="mask0_768" mask-type="alpha" maskUnits="userSpaceOnUse" x="0.000000" y="0.000000" width="240.000000" height="160.000000">
		<rect id="back" rx="6.000000" width="240.000000" height="160.000000" fill="#FFFFFF" fill-opacity="1.000000"/>
		<rect id="back" x="0.500000" y="0.500000" rx="6.000000" width="239.000000" height="159.000000" stroke="#EAEAEA" stroke-opacity="1.000000" stroke-width="1.000000"/>
	</mask>
	<g mask="url(#mask0_768)">
		<rect id="back" x="184.000000" y="104.000000" rx="20.000000" width="40.000000" height="40.000000" fill="#D8D8D8" fill-opacity="0"/>
		<rect id="back" x="185.000000" y="105.000000" rx="19.000000" width="38.000000" height="38.000000" stroke="#FF3E79" stroke-opacity="1.000000" stroke-width="2.000000"/>
		<path id="dropdown" d="M205.5 124L201.7 120.2C201.31 119.81 201.31 119.18 201.7 118.79L201.79 118.7C202.18 118.31 202.81 118.31 203.2 118.7L207.79 123.29C208.18 123.68 208.18 124.31 207.79 124.7L203.2 129.29C202.81 129.68 202.18 129.68 201.79 129.29L201.7 129.2C201.31 128.81 201.31 128.18 201.7 127.79L205.5 124Z" fill="#FF3E79" fill-opacity="1.000000" fill-rule="evenodd"/>
	</g>
	<g mask="url(#mask0_768)">
		<path id="Ремонт ПК" d="M19.12 32.96L19.12 29.68L23.68 29.68Q25.16 29.68 25.88 28.94Q26.56 28.24 26.56 26.88L26.56 24.8Q26.56 23.43 25.88 22.74Q25.16 22 23.68 22L17.84 22Q17.71 22 17.66 22.06Q17.6 22.12 17.6 22.24L17.6 32.96Q17.6 33.08 17.66 33.14Q17.71 33.2 17.84 33.2L18.87 33.2Q19 33.2 19.06 33.14Q19.12 33.08 19.12 32.96ZM86.94 22.24C86.94 22.08 86.86 22 86.7 22L78.22 22C78.06 22 77.98 22.08 77.98 22.24L77.98 32.96C77.98 33.12 78.06 33.2 78.22 33.2L79.26 33.2C79.42 33.2 79.5 33.12 79.5 32.96L79.5 23.44L85.42 23.44L85.42 32.96C85.42 33.12 85.5 33.2 85.66 33.2L86.7 33.2C86.86 33.2 86.94 33.12 86.94 32.96L86.94 22.24ZM91.39 33.14Q91.45 33.08 91.45 32.96L91.45 28.08L94.57 28.08L97.21 32.96C97.26 33.04 97.3 33.1 97.36 33.15C97.41 33.18 97.5 33.2 97.61 33.2L98.73 33.2C98.91 33.2 98.97 33.12 98.89 32.96L95.77 27.28L98.57 22.24C98.65 22.08 98.59 22 98.41 22L97.29 22C97.18 22 97.09 22.02 97.04 22.06C96.98 22.09 96.94 22.15 96.89 22.24L94.49 26.64L91.45 26.64L91.45 22.24Q91.45 22.12 91.39 22.06Q91.33 22 91.21 22L90.17 22C90.01 22 89.93 22.08 89.93 22.24L89.93 32.96C89.93 33.12 90.01 33.2 90.17 33.2L91.21 33.2Q91.33 33.2 91.39 33.14ZM24.7 27.9Q24.36 28.24 23.68 28.24L19.12 28.24L19.12 23.44L23.68 23.44Q24.36 23.44 24.7 23.78Q25.04 24.12 25.04 24.8L25.04 26.88Q25.04 27.56 24.7 27.9ZM29.96 30.88L29.96 29.68L35.4 29.68Q35.52 29.68 35.58 29.62Q35.64 29.56 35.64 29.44L35.64 27.36C35.64 26.56 35.42 25.94 34.99 25.52Q34.98 25.51 34.97 25.5Q34.33 24.88 33.08 24.88L31.16 24.88Q29.92 24.88 29.26 25.5Q29.25 25.51 29.24 25.52Q29.2 25.56 29.16 25.61Q28.6 26.24 28.6 27.36L28.6 30.88C28.6 31.68 28.82 32.29 29.24 32.72Q29.25 32.72 29.26 32.73Q29.92 33.36 31.16 33.36L33.08 33.36Q34.33 33.36 34.97 32.73Q34.98 32.72 34.99 32.72C35.42 32.29 35.64 31.68 35.64 30.88L35.64 30.8C35.64 30.64 35.56 30.56 35.4 30.56L34.52 30.56Q34.4 30.56 34.34 30.62Q34.28 30.68 34.28 30.8L34.28 30.88Q34.28 31.27 34.11 31.55Q34.04 31.66 33.95 31.76C33.73 31.97 33.45 32.08 33.08 32.08L31.16 32.08C30.8 32.08 30.51 31.97 30.28 31.76Q30.21 31.68 30.16 31.59Q29.96 31.3 29.96 30.88ZM55.71 32.72C56.15 32.29 56.37 31.68 56.37 30.88L56.37 27.36C56.37 26.56 56.15 25.94 55.71 25.52Q55.71 25.51 55.7 25.5Q55.06 24.88 53.81 24.88L51.81 24.88C50.97 24.88 50.33 25.09 49.89 25.52Q49.84 25.56 49.8 25.61Q49.25 26.24 49.25 27.36L49.25 30.88C49.25 31.68 49.46 32.29 49.89 32.72C50.33 33.14 50.97 33.36 51.81 33.36L53.81 33.36Q55.06 33.36 55.7 32.73Q55.71 32.72 55.71 32.72ZM45.36 25.28L42.48 31.44L42.4 31.44L39.52 25.28C39.48 25.19 39.43 25.13 39.36 25.1C39.31 25.06 39.2 25.04 39.04 25.04L38.08 25.04Q37.96 25.04 37.9 25.1Q37.84 25.16 37.84 25.28L37.84 32.96Q37.84 33.08 37.9 33.14Q37.96 33.2 38.08 33.2L38.96 33.2Q39.08 33.2 39.14 33.14Q39.2 33.08 39.2 32.96L39.2 27.68L39.28 27.68L41.76 32.96C41.81 33.04 41.85 33.1 41.91 33.15C41.97 33.18 42.08 33.2 42.24 33.2L42.64 33.2Q42.88 33.2 42.96 33.15C43.03 33.1 43.08 33.04 43.12 32.96L45.6 27.68L45.68 27.68L45.68 32.96Q45.68 33.08 45.74 33.14Q45.8 33.2 45.92 33.2L46.8 33.2C46.96 33.2 47.04 33.12 47.04 32.96L47.04 25.28C47.04 25.12 46.96 25.04 46.8 25.04L45.84 25.04C45.68 25.04 45.57 25.06 45.51 25.1C45.45 25.13 45.41 25.19 45.36 25.28ZM59.93 32.96L59.93 29.68L64.01 29.68L64.01 32.96C64.01 33.12 64.09 33.2 64.25 33.2L65.13 33.2C65.29 33.2 65.37 33.12 65.37 32.96L65.37 25.28C65.37 25.12 65.29 25.04 65.13 25.04L64.25 25.04C64.09 25.04 64.01 25.12 64.01 25.28L64.01 28.48L59.93 28.48L59.93 25.28C59.93 25.12 59.85 25.04 59.69 25.04L58.81 25.04C58.65 25.04 58.57 25.12 58.57 25.28L58.57 32.96C58.57 33.12 58.65 33.2 58.81 33.2L59.69 33.2C59.85 33.2 59.93 33.12 59.93 32.96ZM69.33 32.96C69.33 33.12 69.41 33.2 69.57 33.2L70.45 33.2C70.61 33.2 70.69 33.12 70.69 32.96L70.69 26.32L73.17 26.32C73.33 26.32 73.41 26.24 73.41 26.08L73.41 25.28C73.41 25.12 73.33 25.04 73.17 25.04L66.85 25.04C66.69 25.04 66.61 25.12 66.61 25.28L66.61 26.08C66.61 26.24 66.69 26.32 66.85 26.32L69.33 26.32L69.33 32.96ZM34.28 27.36L34.28 28.4L29.96 28.4L29.96 27.36Q29.96 26.92 30.17 26.63Q30.22 26.56 30.28 26.49C30.51 26.27 30.8 26.16 31.16 26.16L33.08 26.16C33.45 26.16 33.73 26.27 33.95 26.49C34.17 26.7 34.28 26.99 34.28 27.36ZM54.67 26.49C54.9 26.7 55.01 26.99 55.01 27.36L55.01 30.88C55.01 31.24 54.9 31.53 54.67 31.76C54.46 31.97 54.17 32.08 53.81 32.08L51.81 32.08C51.45 32.08 51.15 31.97 50.93 31.76Q50.86 31.68 50.8 31.59Q50.61 31.3 50.61 30.88L50.61 27.36Q50.61 26.92 50.81 26.63Q50.86 26.56 50.93 26.49C51.15 26.27 51.45 26.16 51.81 26.16L53.81 26.16C54.17 26.16 54.46 26.27 54.67 26.49Z" fill="#1B1C21" fill-opacity="1.000000" fill-rule="evenodd"/>
	</g>
</svg>
