<svg width="240.000000" height="160.000000" viewBox="0 0 240 160" fill="none" xmlns="http://www.w3.org/2000/svg" xmlns:xlink="http://www.w3.org/1999/xlink">
	<desc>
			Created with Pixso.
	</desc>
	<defs/>
	<rect id="back" rx="6.000000" width="240.000000" height="160.000000" fill="#FFFFFF" fill-opacity="1.000000"/>
	<rect id="back" x="0.500000" y="0.500000" rx="6.000000" width="239.000000" height="159.000000" stroke="#EAEAEA" stroke-opacity="1.000000" stroke-width="1.000000"/>
	<mask id="mask0_780" mask-type="alpha" maskUnits="userSpaceOnUse" x="0.000000" y="0.000000" width="240.000000" height="160.000000">
		<rect id="back" rx="6.000000" width="240.000000" height="160.000000" fill="#FFFFFF" fill-opacity="1.000000"/>
		<rect id="back" x="0.500000" y="0.500000" rx="6.000000" width="239.000000" height="159.000000" stroke="#EAEAEA" stroke-opacity="1.000000" stroke-width="1.000000"/>
	</mask>
	<g mask="url(#mask0_780)">
		<rect id="back" x="184.000000" y="104.000000" rx="20.000000" width="40.000000" height="40.000000" fill="#D8D8D8" fill-opacity="0"/>
		<rect id="back" x="185.000000" y="105.000000" rx="19.000000" width="38.000000" height="38.000000" stroke="#FF3E79" stroke-opacity="1.000000" stroke-width="2.000000"/>
		<path id="dropdown" d="M205.5 124L201.7 120.2C201.31 119.81 201.31 119.18 201.7 118.79L201.79 118.7C202.18 118.31 202.81 118.31 203.2 118.7L207.79 123.29C208.18 123.68 208.18 124.31 207.79 124.7L203.2 129.29C202.81 129.68 202.18 129.68 201.79 129.29L201.7 129.2C201.31 128.81 201.31 128.18 201.7 127.79L205.5 124Z" fill="#FF3E79" fill-opacity="1.000000" fill-rule="evenodd"/>
	</g>
	<g mask="url(#mask0_780)">
		<path id="Ремонт мониторов" d="M19.12 32.96L19.12 29.68L23.68 29.68Q25.16 29.68 25.88 28.94Q26.56 28.24 26.56 26.88L26.56 24.8Q26.56 23.43 25.88 22.74Q25.16 22 23.68 22L17.84 22Q17.71 22 17.66 22.06Q17.6 22.12 17.6 22.24L17.6 32.96Q17.6 33.08 17.66 33.14Q17.71 33.2 17.84 33.2L18.87 33.2Q19 33.2 19.06 33.14Q19.12 33.08 19.12 32.96ZM24.7 27.9Q24.36 28.24 23.68 28.24L19.12 28.24L19.12 23.44L23.68 23.44Q24.36 23.44 24.7 23.78Q25.04 24.12 25.04 24.8L25.04 26.88Q25.04 27.56 24.7 27.9ZM29.96 30.88L29.96 29.68L35.4 29.68Q35.52 29.68 35.58 29.62Q35.64 29.56 35.64 29.44L35.64 27.36C35.64 26.56 35.42 25.94 34.99 25.52Q34.98 25.51 34.97 25.5Q34.33 24.88 33.08 24.88L31.16 24.88Q29.92 24.88 29.26 25.5Q29.25 25.51 29.24 25.52Q29.2 25.56 29.16 25.61Q28.6 26.24 28.6 27.36L28.6 30.88C28.6 31.68 28.82 32.29 29.24 32.72Q29.25 32.72 29.26 32.73Q29.92 33.36 31.16 33.36L33.08 33.36Q34.33 33.36 34.97 32.73Q34.98 32.72 34.99 32.72C35.42 32.29 35.64 31.68 35.64 30.88L35.64 30.8C35.64 30.64 35.56 30.56 35.4 30.56L34.52 30.56Q34.4 30.56 34.34 30.62Q34.28 30.68 34.28 30.8L34.28 30.88Q34.28 31.27 34.11 31.55Q34.04 31.66 33.95 31.76C33.73 31.97 33.45 32.08 33.08 32.08L31.16 32.08C30.8 32.08 30.51 31.97 30.28 31.76Q30.21 31.68 30.16 31.59Q29.96 31.3 29.96 30.88ZM55.71 32.72C56.15 32.29 56.37 31.68 56.37 30.88L56.37 27.36C56.37 26.56 56.15 25.94 55.71 25.52Q55.71 25.51 55.7 25.5Q55.06 24.88 53.81 24.88L51.81 24.88C50.97 24.88 50.33 25.09 49.89 25.52Q49.84 25.56 49.8 25.61Q49.25 26.24 49.25 27.36L49.25 30.88C49.25 31.68 49.46 32.29 49.89 32.72C50.33 33.14 50.97 33.36 51.81 33.36L53.81 33.36Q55.06 33.36 55.7 32.73Q55.71 32.72 55.71 32.72ZM98.53 32.72C98.97 32.29 99.19 31.68 99.19 30.88L99.19 27.36Q99.19 26.27 98.65 25.64Q98.59 25.58 98.53 25.52Q98.52 25.51 98.51 25.5Q97.87 24.88 96.63 24.88L94.63 24.88Q93.38 24.88 92.72 25.5Q92.71 25.51 92.71 25.52Q92.66 25.56 92.62 25.61Q92.07 26.24 92.07 27.36L92.07 30.88C92.07 31.68 92.28 32.29 92.71 32.72Q92.71 32.72 92.72 32.73Q93.38 33.36 94.63 33.36L96.63 33.36Q97.87 33.36 98.51 32.73Q98.52 32.72 98.53 32.72ZM133.09 32.72C133.53 32.29 133.74 31.68 133.74 30.88L133.74 27.36Q133.74 26.27 133.21 25.64Q133.15 25.58 133.09 25.52Q133.08 25.51 133.07 25.5Q132.43 24.88 131.18 24.88L129.18 24.88Q127.94 24.88 127.28 25.5Q127.27 25.51 127.26 25.52Q127.22 25.56 127.18 25.61Q126.62 26.24 126.62 27.36L126.62 30.88C126.62 31.68 126.84 32.29 127.26 32.72Q127.27 32.72 127.28 32.73Q127.94 33.36 129.18 33.36L131.18 33.36Q132.43 33.36 133.07 32.73Q133.08 32.72 133.09 32.72ZM137.3 36L137.3 33.2L140.34 33.2Q141.59 33.2 142.23 32.57Q142.24 32.56 142.25 32.56C142.69 32.13 142.9 31.52 142.9 30.72L142.9 27.36Q142.9 26.27 142.37 25.64Q142.31 25.58 142.25 25.52Q142.24 25.51 142.23 25.5Q141.59 24.88 140.34 24.88L139.14 24.88C138.8 24.88 138.52 24.93 138.3 25.04C138.07 25.13 137.89 25.24 137.75 25.36Q137.56 25.52 137.44 25.74Q137.41 25.78 137.38 25.84L137.3 25.84L137.3 25.28C137.3 25.12 137.22 25.04 137.06 25.04L136.18 25.04C136.02 25.04 135.94 25.12 135.94 25.28L135.94 36C135.94 36.16 136.02 36.24 136.18 36.24L137.06 36.24C137.22 36.24 137.3 36.16 137.3 36ZM151.41 32.72C151.84 32.29 152.06 31.68 152.06 30.88L152.06 27.36C152.06 26.56 151.84 25.94 151.41 25.52C150.98 25.09 150.35 24.88 149.5 24.88L147.5 24.88Q146.26 24.88 145.6 25.5Q145.59 25.51 145.58 25.52Q145.54 25.56 145.5 25.61Q144.94 26.24 144.94 27.36L144.94 30.88C144.94 31.68 145.16 32.29 145.58 32.72Q145.59 32.72 145.6 32.73Q146.26 33.36 147.5 33.36L149.5 33.36C150.35 33.36 150.98 33.14 151.41 32.72ZM45.36 25.28L42.48 31.44L42.4 31.44L39.52 25.28C39.48 25.19 39.43 25.13 39.36 25.1C39.31 25.06 39.2 25.04 39.04 25.04L38.08 25.04Q37.96 25.04 37.9 25.1Q37.84 25.16 37.84 25.28L37.84 32.96Q37.84 33.08 37.9 33.14Q37.96 33.2 38.08 33.2L38.96 33.2Q39.08 33.2 39.14 33.14Q39.2 33.08 39.2 32.96L39.2 27.68L39.28 27.68L41.76 32.96C41.81 33.04 41.85 33.1 41.91 33.15C41.97 33.18 42.08 33.2 42.24 33.2L42.64 33.2Q42.88 33.2 42.96 33.15C43.03 33.1 43.08 33.04 43.12 32.96L45.6 27.68L45.68 27.68L45.68 32.96Q45.68 33.08 45.74 33.14Q45.8 33.2 45.92 33.2L46.8 33.2C46.96 33.2 47.04 33.12 47.04 32.96L47.04 25.28C47.04 25.12 46.96 25.04 46.8 25.04L45.84 25.04C45.68 25.04 45.57 25.06 45.51 25.1C45.45 25.13 45.41 25.19 45.36 25.28ZM59.93 32.96L59.93 29.68L64.01 29.68L64.01 32.96C64.01 33.12 64.09 33.2 64.25 33.2L65.13 33.2C65.29 33.2 65.37 33.12 65.37 32.96L65.37 25.28C65.37 25.12 65.29 25.04 65.13 25.04L64.25 25.04C64.09 25.04 64.01 25.12 64.01 25.28L64.01 28.48L59.93 28.48L59.93 25.28C59.93 25.12 59.85 25.04 59.69 25.04L58.81 25.04C58.65 25.04 58.57 25.12 58.57 25.28L58.57 32.96C58.57 33.12 58.65 33.2 58.81 33.2L59.69 33.2C59.85 33.2 59.93 33.12 59.93 32.96ZM69.33 32.96C69.33 33.12 69.41 33.2 69.57 33.2L70.45 33.2C70.61 33.2 70.69 33.12 70.69 32.96L70.69 26.32L73.17 26.32C73.33 26.32 73.41 26.24 73.41 26.08L73.41 25.28C73.41 25.12 73.33 25.04 73.17 25.04L66.85 25.04C66.69 25.04 66.61 25.12 66.61 25.28L66.61 26.08C66.61 26.24 66.69 26.32 66.85 26.32L69.33 26.32L69.33 32.96ZM88.18 25.28L85.3 31.44L85.22 31.44L82.34 25.28C82.3 25.19 82.24 25.13 82.18 25.1C82.13 25.06 82.02 25.04 81.86 25.04L80.9 25.04C80.74 25.04 80.66 25.12 80.66 25.28L80.66 32.96C80.66 33.12 80.74 33.2 80.9 33.2L81.78 33.2C81.94 33.2 82.02 33.12 82.02 32.96L82.02 27.68L82.1 27.68L84.58 32.96C84.62 33.04 84.67 33.1 84.72 33.15C84.79 33.18 84.9 33.2 85.06 33.2L85.46 33.2Q85.7 33.2 85.78 33.15C85.84 33.1 85.9 33.04 85.94 32.96L88.42 27.68L88.5 27.68L88.5 32.96C88.5 33.12 88.58 33.2 88.74 33.2L89.62 33.2Q89.74 33.2 89.8 33.14Q89.86 33.08 89.86 32.96L89.86 25.28C89.86 25.12 89.78 25.04 89.62 25.04L88.66 25.04Q88.42 25.04 88.32 25.1C88.27 25.13 88.22 25.19 88.18 25.28ZM102.74 32.96L102.74 29.68L106.82 29.68L106.82 32.96C106.82 33.12 106.9 33.2 107.06 33.2L107.94 33.2Q108.06 33.2 108.12 33.14Q108.18 33.08 108.18 32.96L108.18 25.28C108.18 25.12 108.1 25.04 107.94 25.04L107.06 25.04C106.9 25.04 106.82 25.12 106.82 25.28L106.82 28.48L102.74 28.48L102.74 25.28C102.74 25.12 102.66 25.04 102.5 25.04L101.62 25.04C101.46 25.04 101.38 25.12 101.38 25.28L101.38 32.96C101.38 33.12 101.46 33.2 101.62 33.2L102.5 33.2C102.66 33.2 102.74 33.12 102.74 32.96ZM117.5 25.28C117.5 25.12 117.42 25.04 117.26 25.04L116.3 25.04Q116.06 25.04 115.98 25.1C115.93 25.13 115.88 25.19 115.82 25.28L111.98 31.12L111.9 31.12L111.9 25.28C111.9 25.12 111.82 25.04 111.66 25.04L110.78 25.04C110.62 25.04 110.54 25.12 110.54 25.28L110.54 32.96C110.54 33.12 110.62 33.2 110.78 33.2L111.74 33.2Q111.98 33.2 112.06 33.15C112.12 33.1 112.17 33.04 112.22 32.96L116.06 27.12L116.14 27.12L116.14 32.96Q116.14 33.08 116.2 33.14Q116.26 33.2 116.38 33.2L117.26 33.2C117.42 33.2 117.5 33.12 117.5 32.96L117.5 25.28ZM121.52 33.14Q121.58 33.2 121.7 33.2L122.58 33.2C122.74 33.2 122.82 33.12 122.82 32.96L122.82 26.32L125.3 26.32C125.46 26.32 125.54 26.24 125.54 26.08L125.54 25.28C125.54 25.12 125.46 25.04 125.3 25.04L118.98 25.04C118.82 25.04 118.74 25.12 118.74 25.28L118.74 26.08C118.74 26.24 118.82 26.32 118.98 26.32L121.46 26.32L121.46 32.96Q121.46 33.08 121.52 33.14ZM154.32 33.14Q154.38 33.2 154.5 33.2L158.66 33.2C160.26 33.2 161.06 32.42 161.06 30.88L161.06 30.72Q161.06 30.16 160.82 29.8C160.66 29.57 160.49 29.39 160.29 29.26C160.07 29.11 159.82 29.01 159.54 28.96L159.54 28.88C159.74 28.82 159.91 28.73 160.06 28.6C160.18 28.49 160.3 28.33 160.41 28.14Q160.58 27.84 160.58 27.36Q160.58 26.23 160.02 25.66Q159.42 25.04 158.18 25.04L154.5 25.04Q154.38 25.04 154.32 25.1Q154.26 25.16 154.26 25.28L154.26 32.96Q154.26 33.08 154.32 33.14ZM34.28 27.36L34.28 28.4L29.96 28.4L29.96 27.36Q29.96 26.92 30.17 26.63Q30.22 26.56 30.28 26.49C30.51 26.27 30.8 26.16 31.16 26.16L33.08 26.16C33.45 26.16 33.73 26.27 33.95 26.49C34.17 26.7 34.28 26.99 34.28 27.36ZM54.67 26.49C54.9 26.7 55.01 26.99 55.01 27.36L55.01 30.88C55.01 31.24 54.9 31.53 54.67 31.76C54.46 31.97 54.17 32.08 53.81 32.08L51.81 32.08C51.45 32.08 51.15 31.97 50.93 31.76Q50.86 31.68 50.8 31.59Q50.61 31.3 50.61 30.88L50.61 27.36Q50.61 26.92 50.81 26.63Q50.86 26.56 50.93 26.49C51.15 26.27 51.45 26.16 51.81 26.16L53.81 26.16C54.17 26.16 54.46 26.27 54.67 26.49ZM97.64 26.67Q97.83 26.95 97.83 27.36L97.83 30.88Q97.83 31.27 97.65 31.55Q97.58 31.66 97.49 31.76C97.28 31.97 96.99 32.08 96.63 32.08L94.63 32.08C94.26 32.08 93.97 31.97 93.75 31.76Q93.67 31.68 93.62 31.59Q93.43 31.3 93.43 30.88L93.43 27.36Q93.43 26.92 93.63 26.63Q93.68 26.56 93.75 26.49C93.97 26.27 94.26 26.16 94.63 26.16L96.63 26.16C96.99 26.16 97.28 26.27 97.49 26.49Q97.57 26.57 97.64 26.67ZM132.2 26.67Q132.38 26.95 132.38 27.36L132.38 30.88Q132.38 31.27 132.21 31.55Q132.14 31.66 132.05 31.76C131.84 31.97 131.55 32.08 131.18 32.08L129.18 32.08C128.82 32.08 128.53 31.97 128.3 31.76Q128.23 31.68 128.18 31.59Q127.98 31.3 127.98 30.88L127.98 27.36Q127.98 26.92 128.19 26.63Q128.24 26.56 128.3 26.49C128.53 26.27 128.82 26.16 129.18 26.16L131.18 26.16C131.55 26.16 131.84 26.27 132.05 26.49Q132.13 26.57 132.2 26.67ZM141.21 31.6C140.99 31.81 140.71 31.92 140.34 31.92L137.3 31.92L137.3 27.84C137.3 27.36 137.46 26.96 137.78 26.64C138.1 26.32 138.5 26.16 138.98 26.16L140.34 26.16C140.71 26.16 140.99 26.27 141.21 26.49Q141.29 26.57 141.36 26.67Q141.54 26.95 141.54 27.36L141.54 30.72Q141.54 31.11 141.37 31.39Q141.3 31.5 141.21 31.6ZM150.52 26.67Q150.7 26.95 150.7 27.36L150.7 30.88Q150.7 31.27 150.53 31.55Q150.46 31.66 150.37 31.76C150.15 31.97 149.87 32.08 149.5 32.08L147.5 32.08C147.14 32.08 146.85 31.97 146.62 31.76C146.41 31.53 146.3 31.24 146.3 30.88L146.3 27.36C146.3 26.99 146.41 26.7 146.62 26.49C146.85 26.27 147.14 26.16 147.5 26.16L149.5 26.16C149.87 26.16 150.15 26.27 150.37 26.49Q150.45 26.57 150.52 26.67ZM158.93 28.12C158.75 28.3 158.5 28.4 158.18 28.4L155.62 28.4L155.62 26.32L158.18 26.32C158.5 26.32 158.75 26.41 158.93 26.6C159.13 26.78 159.22 27.04 159.22 27.36C159.22 27.68 159.13 27.93 158.93 28.12ZM159.42 31.64C159.23 31.82 158.98 31.92 158.66 31.92L155.62 31.92L155.62 29.68L158.66 29.68C158.98 29.68 159.23 29.77 159.42 29.96C159.61 30.14 159.7 30.4 159.7 30.72L159.7 30.88C159.7 31.2 159.61 31.45 159.42 31.64Z" fill="#1B1C21" fill-opacity="1.000000" fill-rule="evenodd"/>
	</g>
</svg>
